<svg width="32" height="32" viewBox="0 0 32 32" fill="none" xmlns="http://www.w3.org/2000/svg">
<mask id="mask0_126_54" style="mask-type:alpha" maskUnits="userSpaceOnUse" x="0" y="0" width="32" height="32">
<rect width="32" height="32" fill="#3D0E1E"/>
</mask>
<g mask="url(#mask0_126_54)">
<path d="M0 29.4271V26.4844H5.33333V25.013C4.6 25.013 3.97222 24.7249 3.45 24.1486C2.92778 23.5723 2.66667 22.8796 2.66667 22.0703V7.35677C2.66667 6.54753 2.92778 5.85476 3.45 5.27848C3.97222 4.7022 4.6 4.41406 5.33333 4.41406H26.6667C27.4 4.41406 28.0278 4.7022 28.55 5.27848C29.0722 5.85476 29.3333 6.54753 29.3333 7.35677V22.0703C29.3333 22.8796 29.0722 23.5723 28.55 24.1486C28.0278 24.7249 27.4 25.013 26.6667 25.013V26.4844H32V29.4271H0ZM5.33333 22.0703H26.6667V7.35677H5.33333V22.0703Z" fill="#006ff0"/>
</g>
</svg>
