<svg width="32" height="32" viewBox="0 0 32 32" fill="none" xmlns="http://www.w3.org/2000/svg">
<mask id="mask0_126_66" style="mask-type:alpha" maskUnits="userSpaceOnUse" x="0" y="0" width="32" height="32">
<rect width="32" height="32" fill="#3D0E1E"/>
</mask>
<g mask="url(#mask0_126_66)">
<path d="M15.9999 17.6562C14.5333 17.6562 13.2777 17.0799 12.2333 15.9274C11.1888 14.7748 10.6666 13.3893 10.6666 11.7708C10.6666 10.1523 11.1888 8.76678 12.2333 7.61422C13.2777 6.46166 14.5333 5.88538 15.9999 5.88538C17.4666 5.88538 18.7221 6.46166 19.7666 7.61422C20.811 8.76678 21.3333 10.1523 21.3333 11.7708C21.3333 13.3893 20.811 14.7748 19.7666 15.9274C18.7221 17.0799 17.4666 17.6562 15.9999 17.6562ZM5.33325 29.427V25.3073C5.33325 24.4735 5.5277 23.7072 5.91659 23.0083C6.30547 22.3094 6.82214 21.776 7.46659 21.4082C8.84436 20.648 10.2444 20.0778 11.6666 19.6977C13.0888 19.3176 14.5333 19.1276 15.9999 19.1276C17.4666 19.1276 18.911 19.3176 20.3333 19.6977C21.7555 20.0778 23.1555 20.648 24.5333 21.4082C25.1777 21.776 25.6944 22.3094 26.0833 23.0083C26.4721 23.7072 26.6666 24.4735 26.6666 25.3073V29.427H5.33325Z" fill="#3D0E1E"/>
</g>
</svg>
