<svg width="32" height="32" viewBox="0 0 32 32" fill="none" xmlns="http://www.w3.org/2000/svg">
<mask id="mask0_126_60" style="mask-type:alpha" maskUnits="userSpaceOnUse" x="0" y="0" width="32" height="32">
<rect width="32" height="32" fill="#3D0E1E"/>
</mask>
<g mask="url(#mask0_126_60)">
<path d="M8.00008 30.8984C7.00008 30.8984 6.01119 30.6286 5.03341 30.0891C4.05564 29.5496 3.26675 28.8385 2.66675 27.9557C3.24453 27.9557 3.83341 27.7043 4.43341 27.2016C5.03341 26.6989 5.33341 25.9693 5.33341 25.0129C5.33341 23.7868 5.7223 22.7446 6.50008 21.8863C7.27786 21.028 8.2223 20.5989 9.33342 20.5989C10.4445 20.5989 11.389 21.028 12.1667 21.8863C12.9445 22.7446 13.3334 23.7868 13.3334 25.0129C13.3334 26.6314 12.8112 28.017 11.7667 29.1695C10.7223 30.3221 9.46675 30.8984 8.00008 30.8984ZM8.00008 27.9557C8.73342 27.9557 9.36119 27.6675 9.88341 27.0912C10.4056 26.515 10.6667 25.8222 10.6667 25.0129C10.6667 24.5961 10.539 24.2466 10.2834 23.9646C10.0279 23.6826 9.71119 23.5416 9.33342 23.5416C8.95564 23.5416 8.63897 23.6826 8.38341 23.9646C8.12786 24.2466 8.00008 24.5961 8.00008 25.0129C8.00008 25.577 7.93897 26.0919 7.81675 26.5579C7.69453 27.0238 7.53341 27.4652 7.33342 27.8821C7.44453 27.9311 7.55564 27.9557 7.66675 27.9557H8.00008ZM15.6667 22.0702L12.0001 18.024L23.9334 4.85539C24.1779 4.58564 24.4834 4.44464 24.8501 4.43238C25.2167 4.42012 25.5334 4.56112 25.8001 4.85539L27.6001 6.84172C27.8668 7.13599 28.0001 7.47931 28.0001 7.87167C28.0001 8.26403 27.8668 8.60734 27.6001 8.90161L15.6667 22.0702Z" fill="#3D0E1E"/>
</g>
</svg>
