<svg width="64" height="64" viewBox="0 0 64 64" fill="none" xmlns="http://www.w3.org/2000/svg">
<mask id="mask0_251_229" style="mask-type:alpha" maskUnits="userSpaceOnUse" x="0" y="0" width="64" height="64">
<rect width="64" height="64" fill="#D9D9D9"/>
</mask>
<g mask="url(#mask0_251_229)">
<path d="M32 16C31.6445 16 31.3334 15.8667 31.0667 15.6C30.8 15.3334 30.6667 15.0223 30.6667 14.6667C30.6667 14.3112 30.8 14 31.0667 13.7334C31.3334 13.4667 31.6445 13.3334 32 13.3334C32.3556 13.3334 32.6667 13.4667 32.9334 13.7334C33.2 14 33.3334 14.3112 33.3334 14.6667C33.3334 15.0223 33.2 15.3334 32.9334 15.6C32.6667 15.8667 32.3556 16 32 16ZM37.3334 16C36.9778 16 36.6667 15.8667 36.4 15.6C36.1334 15.3334 36 15.0223 36 14.6667C36 14.3112 36.1334 14 36.4 13.7334C36.6667 13.4667 36.9778 13.3334 37.3334 13.3334C37.6889 13.3334 38 13.4667 38.2667 13.7334C38.5334 14 38.6667 14.3112 38.6667 14.6667C38.6667 15.0223 38.5334 15.3334 38.2667 15.6C38 15.8667 37.6889 16 37.3334 16ZM26.6667 16C26.3111 16 26 15.8667 25.7334 15.6C25.4667 15.3334 25.3334 15.0223 25.3334 14.6667C25.3334 14.3112 25.4667 14 25.7334 13.7334C26 13.4667 26.3111 13.3334 26.6667 13.3334C27.0223 13.3334 27.3334 13.4667 27.6 13.7334C27.8667 14 28 14.3112 28 14.6667C28 15.0223 27.8667 15.3334 27.6 15.6C27.3334 15.8667 27.0223 16 26.6667 16ZM45.3334 18.6667C44.9778 18.6667 44.6667 18.5334 44.4 18.2667C44.1334 18 44 17.6889 44 17.3334C44 16.9778 44.1334 16.6667 44.4 16.4C44.6667 16.1334 44.9778 16 45.3334 16C45.6889 16 46 16.1334 46.2667 16.4C46.5334 16.6667 46.6667 16.9778 46.6667 17.3334C46.6667 17.6889 46.5334 18 46.2667 18.2667C46 18.5334 45.6889 18.6667 45.3334 18.6667ZM24 18.6667C23.6445 18.6667 23.3334 18.5334 23.0667 18.2667C22.8 18 22.6667 17.6889 22.6667 17.3334C22.6667 16.9778 22.8 16.6667 23.0667 16.4C23.3334 16.1334 23.6445 16 24 16C24.3556 16 24.6667 16.1334 24.9334 16.4C25.2 16.6667 25.3334 16.9778 25.3334 17.3334C25.3334 17.6889 25.2 18 24.9334 18.2667C24.6667 18.5334 24.3556 18.6667 24 18.6667ZM18.6667 18.6667C18.3112 18.6667 18 18.5334 17.7334 18.2667C17.4667 18 17.3334 17.6889 17.3334 17.3334C17.3334 16.9778 17.4667 16.6667 17.7334 16.4C18 16.1334 18.3112 16 18.6667 16C19.0223 16 19.3334 16.1334 19.6 16.4C19.8667 16.6667 20 16.9778 20 17.3334C20 17.6889 19.8667 18 19.6 18.2667C19.3334 18.5334 19.0223 18.6667 18.6667 18.6667ZM29.3334 18.6667C28.9778 18.6667 28.6667 18.5334 28.4 18.2667C28.1334 18 28 17.6889 28 17.3334C28 16.9778 28.1334 16.6667 28.4 16.4C28.6667 16.1334 28.9778 16 29.3334 16C29.6889 16 30 16.1334 30.2667 16.4C30.5334 16.6667 30.6667 16.9778 30.6667 17.3334C30.6667 17.6889 30.5334 18 30.2667 18.2667C30 18.5334 29.6889 18.6667 29.3334 18.6667ZM34.6667 18.6667C34.3111 18.6667 34 18.5334 33.7334 18.2667C33.4667 18 33.3334 17.6889 33.3334 17.3334C33.3334 16.9778 33.4667 16.6667 33.7334 16.4C34 16.1334 34.3111 16 34.6667 16C35.0223 16 35.3334 16.1334 35.6 16.4C35.8667 16.6667 36 16.9778 36 17.3334C36 17.6889 35.8667 18 35.6 18.2667C35.3334 18.5334 35.0223 18.6667 34.6667 18.6667ZM40 18.6667C39.6445 18.6667 39.3334 18.5334 39.0667 18.2667C38.8 18 38.6667 17.6889 38.6667 17.3334C38.6667 16.9778 38.8 16.6667 39.0667 16.4C39.3334 16.1334 39.6445 16 40 16C40.3556 16 40.6667 16.1334 40.9334 16.4C41.2 16.6667 41.3334 16.9778 41.3334 17.3334C41.3334 17.6889 41.2 18 40.9334 18.2667C40.6667 18.5334 40.3556 18.6667 40 18.6667ZM32 21.3334C31.6445 21.3334 31.3334 21.2 31.0667 20.9334C30.8 20.6667 30.6667 20.3556 30.6667 20C30.6667 19.6445 30.8 19.3334 31.0667 19.0667C31.3334 18.8 31.6445 18.6667 32 18.6667C32.3556 18.6667 32.6667 18.8 32.9334 19.0667C33.2 19.3334 33.3334 19.6445 33.3334 20C33.3334 20.3556 33.2 20.6667 32.9334 20.9334C32.6667 21.2 32.3556 21.3334 32 21.3334ZM37.3334 21.3334C36.9778 21.3334 36.6667 21.2 36.4 20.9334C36.1334 20.6667 36 20.3556 36 20C36 19.6445 36.1334 19.3334 36.4 19.0667C36.6667 18.8 36.9778 18.6667 37.3334 18.6667C37.6889 18.6667 38 18.8 38.2667 19.0667C38.5334 19.3334 38.6667 19.6445 38.6667 20C38.6667 20.3556 38.5334 20.6667 38.2667 20.9334C38 21.2 37.6889 21.3334 37.3334 21.3334ZM42.6667 21.3334C42.3111 21.3334 42 21.2 41.7334 20.9334C41.4667 20.6667 41.3334 20.3556 41.3334 20C41.3334 19.6445 41.4667 19.3334 41.7334 19.0667C42 18.8 42.3111 18.6667 42.6667 18.6667C43.0223 18.6667 43.3334 18.8 43.6 19.0667C43.8667 19.3334 44 19.6445 44 20C44 20.3556 43.8667 20.6667 43.6 20.9334C43.3334 21.2 43.0223 21.3334 42.6667 21.3334ZM26.6667 21.3334C26.3111 21.3334 26 21.2 25.7334 20.9334C25.4667 20.6667 25.3334 20.3556 25.3334 20C25.3334 19.6445 25.4667 19.3334 25.7334 19.0667C26 18.8 26.3111 18.6667 26.6667 18.6667C27.0223 18.6667 27.3334 18.8 27.6 19.0667C27.8667 19.3334 28 19.6445 28 20C28 20.3556 27.8667 20.6667 27.6 20.9334C27.3334 21.2 27.0223 21.3334 26.6667 21.3334ZM21.3334 21.3334C20.9778 21.3334 20.6667 21.2 20.4 20.9334C20.1334 20.6667 20 20.3556 20 20C20 19.6445 20.1334 19.3334 20.4 19.0667C20.6667 18.8 20.9778 18.6667 21.3334 18.6667C21.6889 18.6667 22 18.8 22.2667 19.0667C22.5334 19.3334 22.6667 19.6445 22.6667 20C22.6667 20.3556 22.5334 20.6667 22.2667 20.9334C22 21.2 21.6889 21.3334 21.3334 21.3334ZM24 24C23.6445 24 23.3334 23.8667 23.0667 23.6C22.8 23.3334 22.6667 23.0223 22.6667 22.6667C22.6667 22.3112 22.8 22 23.0667 21.7334C23.3334 21.4667 23.6445 21.3334 24 21.3334C24.3556 21.3334 24.6667 21.4667 24.9334 21.7334C25.2 22 25.3334 22.3112 25.3334 22.6667C25.3334 23.0223 25.2 23.3334 24.9334 23.6C24.6667 23.8667 24.3556 24 24 24ZM18.6667 24C18.3112 24 18 23.8667 17.7334 23.6C17.4667 23.3334 17.3334 23.0223 17.3334 22.6667C17.3334 22.3112 17.4667 22 17.7334 21.7334C18 21.4667 18.3112 21.3334 18.6667 21.3334C19.0223 21.3334 19.3334 21.4667 19.6 21.7334C19.8667 22 20 22.3112 20 22.6667C20 23.0223 19.8667 23.3334 19.6 23.6C19.3334 23.8667 19.0223 24 18.6667 24ZM29.3334 24C28.9778 24 28.6667 23.8667 28.4 23.6C28.1334 23.3334 28 23.0223 28 22.6667C28 22.3112 28.1334 22 28.4 21.7334C28.6667 21.4667 28.9778 21.3334 29.3334 21.3334C29.6889 21.3334 30 21.4667 30.2667 21.7334C30.5334 22 30.6667 22.3112 30.6667 22.6667C30.6667 23.0223 30.5334 23.3334 30.2667 23.6C30 23.8667 29.6889 24 29.3334 24ZM34.6667 24C34.3111 24 34 23.8667 33.7334 23.6C33.4667 23.3334 33.3334 23.0223 33.3334 22.6667C33.3334 22.3112 33.4667 22 33.7334 21.7334C34 21.4667 34.3111 21.3334 34.6667 21.3334C35.0223 21.3334 35.3334 21.4667 35.6 21.7334C35.8667 22 36 22.3112 36 22.6667C36 23.0223 35.8667 23.3334 35.6 23.6C35.3334 23.8667 35.0223 24 34.6667 24ZM40 24C39.6445 24 39.3334 23.8667 39.0667 23.6C38.8 23.3334 38.6667 23.0223 38.6667 22.6667C38.6667 22.3112 38.8 22 39.0667 21.7334C39.3334 21.4667 39.6445 21.3334 40 21.3334C40.3556 21.3334 40.6667 21.4667 40.9334 21.7334C41.2 22 41.3334 22.3112 41.3334 22.6667C41.3334 23.0223 41.2 23.3334 40.9334 23.6C40.6667 23.8667 40.3556 24 40 24ZM45.3334 24C44.9778 24 44.6667 23.8667 44.4 23.6C44.1334 23.3334 44 23.0223 44 22.6667C44 22.3112 44.1334 22 44.4 21.7334C44.6667 21.4667 44.9778 21.3334 45.3334 21.3334C45.6889 21.3334 46 21.4667 46.2667 21.7334C46.5334 22 46.6667 22.3112 46.6667 22.6667C46.6667 23.0223 46.5334 23.3334 46.2667 23.6C46 23.8667 45.6889 24 45.3334 24ZM13.3334 24C12.9778 24 12.6667 23.8667 12.4 23.6C12.1334 23.3334 12 23.0223 12 22.6667C12 22.3112 12.1334 22 12.4 21.7334C12.6667 21.4667 12.9778 21.3334 13.3334 21.3334C13.6889 21.3334 14 21.4667 14.2667 21.7334C14.5334 22 14.6667 22.3112 14.6667 22.6667C14.6667 23.0223 14.5334 23.3334 14.2667 23.6C14 23.8667 13.6889 24 13.3334 24ZM16 21.3334C15.6445 21.3334 15.3334 21.2 15.0667 20.9334C14.8 20.6667 14.6667 20.3556 14.6667 20C14.6667 19.6445 14.8 19.3334 15.0667 19.0667C15.3334 18.8 15.6445 18.6667 16 18.6667C16.3556 18.6667 16.6667 18.8 16.9334 19.0667C17.2 19.3334 17.3334 19.6445 17.3334 20C17.3334 20.3556 17.2 20.6667 16.9334 20.9334C16.6667 21.2 16.3556 21.3334 16 21.3334ZM21.3334 16C20.9778 16 20.6667 15.8667 20.4 15.6C20.1334 15.3334 20 15.0223 20 14.6667C20 14.3112 20.1334 14 20.4 13.7334C20.6667 13.4667 20.9778 13.3334 21.3334 13.3334C21.6889 13.3334 22 13.4667 22.2667 13.7334C22.5334 14 22.6667 14.3112 22.6667 14.6667C22.6667 15.0223 22.5334 15.3334 22.2667 15.6C22 15.8667 21.6889 16 21.3334 16ZM24 13.3334C23.6445 13.3334 23.3334 13.2 23.0667 12.9334C22.8 12.6667 22.6667 12.3556 22.6667 12C22.6667 11.6445 22.8 11.3334 23.0667 11.0667C23.3334 10.8 23.6445 10.6667 24 10.6667C24.3556 10.6667 24.6667 10.8 24.9334 11.0667C25.2 11.3334 25.3334 11.6445 25.3334 12C25.3334 12.3556 25.2 12.6667 24.9334 12.9334C24.6667 13.2 24.3556 13.3334 24 13.3334ZM29.3334 13.3334C28.9778 13.3334 28.6667 13.2 28.4 12.9334C28.1334 12.6667 28 12.3556 28 12C28 11.6445 28.1334 11.3334 28.4 11.0667C28.6667 10.8 28.9778 10.6667 29.3334 10.6667C29.6889 10.6667 30 10.8 30.2667 11.0667C30.5334 11.3334 30.6667 11.6445 30.6667 12C30.6667 12.3556 30.5334 12.6667 30.2667 12.9334C30 13.2 29.6889 13.3334 29.3334 13.3334ZM34.6667 13.3334C34.3111 13.3334 34 13.2 33.7334 12.9334C33.4667 12.6667 33.3334 12.3556 33.3334 12C33.3334 11.6445 33.4667 11.3334 33.7334 11.0667C34 10.8 34.3111 10.6667 34.6667 10.6667C35.0223 10.6667 35.3334 10.8 35.6 11.0667C35.8667 11.3334 36 11.6445 36 12C36 12.3556 35.8667 12.6667 35.6 12.9334C35.3334 13.2 35.0223 13.3334 34.6667 13.3334ZM40 13.3334C39.6445 13.3334 39.3334 13.2 39.0667 12.9334C38.8 12.6667 38.6667 12.3556 38.6667 12C38.6667 11.6445 38.8 11.3334 39.0667 11.0667C39.3334 10.8 39.6445 10.6667 40 10.6667C40.3556 10.6667 40.6667 10.8 40.9334 11.0667C41.2 11.3334 41.3334 11.6445 41.3334 12C41.3334 12.3556 41.2 12.6667 40.9334 12.9334C40.6667 13.2 40.3556 13.3334 40 13.3334ZM42.6667 16C42.3111 16 42 15.8667 41.7334 15.6C41.4667 15.3334 41.3334 15.0223 41.3334 14.6667C41.3334 14.3112 41.4667 14 41.7334 13.7334C42 13.4667 42.3111 13.3334 42.6667 13.3334C43.0223 13.3334 43.3334 13.4667 43.6 13.7334C43.8667 14 44 14.3112 44 14.6667C44 15.0223 43.8667 15.3334 43.6 15.6C43.3334 15.8667 43.0223 16 42.6667 16ZM48 21.3334C47.6445 21.3334 47.3334 21.2 47.0667 20.9334C46.8 20.6667 46.6667 20.3556 46.6667 20C46.6667 19.6445 46.8 19.3334 47.0667 19.0667C47.3334 18.8 47.6445 18.6667 48 18.6667C48.3556 18.6667 48.6667 18.8 48.9334 19.0667C49.2 19.3334 49.3334 19.6445 49.3334 20C49.3334 20.3556 49.2 20.6667 48.9334 20.9334C48.6667 21.2 48.3556 21.3334 48 21.3334ZM50.6667 24C50.3111 24 50 23.8667 49.7334 23.6C49.4667 23.3334 49.3334 23.0223 49.3334 22.6667C49.3334 22.3112 49.4667 22 49.7334 21.7334C50 21.4667 50.3111 21.3334 50.6667 21.3334C51.0223 21.3334 51.3334 21.4667 51.6 21.7334C51.8667 22 52 22.3112 52 22.6667C52 23.0223 51.8667 23.3334 51.6 23.6C51.3334 23.8667 51.0223 24 50.6667 24ZM24 38C23.0667 38 22.2778 37.6778 21.6334 37.0334C20.9889 36.3889 20.6667 35.6 20.6667 34.6667C20.6667 33.7334 20.9889 32.9445 21.6334 32.3C22.2778 31.6556 23.0667 31.3334 24 31.3334C24.9334 31.3334 25.7223 31.6556 26.3667 32.3C27.0112 32.9445 27.3334 33.7334 27.3334 34.6667C27.3334 35.6 27.0112 36.3889 26.3667 37.0334C25.7223 37.6778 24.9334 38 24 38ZM40 38C39.0667 38 38.2778 37.6778 37.6334 37.0334C36.9889 36.3889 36.6667 35.6 36.6667 34.6667C36.6667 33.7334 36.9889 32.9445 37.6334 32.3C38.2778 31.6556 39.0667 31.3334 40 31.3334C40.9334 31.3334 41.7223 31.6556 42.3667 32.3C43.0112 32.9445 43.3334 33.7334 43.3334 34.6667C43.3334 35.6 43.0112 36.3889 42.3667 37.0334C41.7223 37.6778 40.9334 38 40 38ZM32 58.6667C28.3556 58.6667 24.9111 57.9667 21.6667 56.5667C18.4223 55.1667 15.5889 53.2556 13.1667 50.8334C10.7445 48.4111 8.83337 45.5778 7.43337 42.3334C6.03337 39.0889 5.33337 35.6445 5.33337 32C5.33337 28.3111 6.03337 24.8445 7.43337 21.6C8.83337 18.3556 10.7445 15.5334 13.1667 13.1334C15.5889 10.7334 18.4223 8.83337 21.6667 7.43337C24.9111 6.03337 28.3556 5.33337 32 5.33337C35.6889 5.33337 39.1556 6.03337 42.4 7.43337C45.6445 8.83337 48.4667 10.7334 50.8667 13.1334C53.2667 15.5334 55.1667 18.3556 56.5667 21.6C57.9667 24.8445 58.6667 28.3111 58.6667 32C58.6667 35.6445 57.9667 39.0889 56.5667 42.3334C55.1667 45.5778 53.2667 48.4111 50.8667 50.8334C48.4667 53.2556 45.6445 55.1667 42.4 56.5667C39.1556 57.9667 35.6889 58.6667 32 58.6667ZM32 53.3334C37.9556 53.3334 43 51.2556 47.1334 47.1C51.2667 42.9445 53.3334 37.9111 53.3334 32C53.3334 26.0445 51.2667 21 47.1334 16.8667C43 12.7334 37.9556 10.6667 32 10.6667C26.0889 10.6667 21.0556 12.7334 16.9 16.8667C12.7445 21 10.6667 26.0445 10.6667 32C10.6667 37.9111 12.7445 42.9445 16.9 47.1C21.0556 51.2556 26.0889 53.3334 32 53.3334Z" fill="#3D0E1E"/>
</g>
</svg>
