<svg width="64" height="64" viewBox="0 0 64 64" fill="none" xmlns="http://www.w3.org/2000/svg">
<mask id="mask0_251_226" style="mask-type:alpha" maskUnits="userSpaceOnUse" x="0" y="0" width="64" height="64">
<rect width="64" height="64" fill="#D9D9D9"/>
</mask>
<g mask="url(#mask0_251_226)">
<path d="M24 38C23.0667 38 22.2778 37.6778 21.6334 37.0334C20.9889 36.3889 20.6667 35.6 20.6667 34.6667C20.6667 33.7334 20.9889 32.9445 21.6334 32.3C22.2778 31.6556 23.0667 31.3334 24 31.3334C24.9334 31.3334 25.7223 31.6556 26.3667 32.3C27.0112 32.9445 27.3334 33.7334 27.3334 34.6667C27.3334 35.6 27.0112 36.3889 26.3667 37.0334C25.7223 37.6778 24.9334 38 24 38ZM40 38C39.0667 38 38.2778 37.6778 37.6334 37.0334C36.9889 36.3889 36.6667 35.6 36.6667 34.6667C36.6667 33.7334 36.9889 32.9445 37.6334 32.3C38.2778 31.6556 39.0667 31.3334 40 31.3334C40.9334 31.3334 41.7223 31.6556 42.3667 32.3C43.0112 32.9445 43.3334 33.7334 43.3334 34.6667C43.3334 35.6 43.0112 36.3889 42.3667 37.0334C41.7223 37.6778 40.9334 38 40 38ZM32 53.3334C37.9556 53.3334 43 51.2667 47.1334 47.1334C51.2667 43 53.3334 37.9556 53.3334 32C53.3334 30.9334 53.2667 29.9 53.1334 28.9C53 27.9 52.7556 26.9334 52.4 26C51.4667 26.2223 50.5334 26.3889 49.6 26.5C48.6667 26.6112 47.6889 26.6667 46.6667 26.6667C42.6223 26.6667 38.8 25.8 35.2 24.0667C31.6 22.3334 28.5334 19.9112 26 16.8C24.5778 20.2667 22.5445 23.2778 19.9 25.8334C17.2556 28.3889 14.1778 30.3112 10.6667 31.6V32C10.6667 37.9556 12.7334 43 16.8667 47.1334C21 51.2667 26.0445 53.3334 32 53.3334ZM32 58.6667C28.3111 58.6667 24.8445 57.9667 21.6 56.5667C18.3556 55.1667 15.5334 53.2667 13.1334 50.8667C10.7334 48.4667 8.83337 45.6445 7.43337 42.4C6.03337 39.1556 5.33337 35.6889 5.33337 32C5.33337 28.3111 6.03337 24.8445 7.43337 21.6C8.83337 18.3556 10.7334 15.5334 13.1334 13.1334C15.5334 10.7334 18.3556 8.83337 21.6 7.43337C24.8445 6.03337 28.3111 5.33337 32 5.33337C35.6889 5.33337 39.1556 6.03337 42.4 7.43337C45.6445 8.83337 48.4667 10.7334 50.8667 13.1334C53.2667 15.5334 55.1667 18.3556 56.5667 21.6C57.9667 24.8445 58.6667 28.3111 58.6667 32C58.6667 35.6889 57.9667 39.1556 56.5667 42.4C55.1667 45.6445 53.2667 48.4667 50.8667 50.8667C48.4667 53.2667 45.6445 55.1667 42.4 56.5667C39.1556 57.9667 35.6889 58.6667 32 58.6667ZM28.4 11C30.2667 14.1112 32.8 16.6112 36 18.5C39.2 20.3889 42.7556 21.3334 46.6667 21.3334C47.2889 21.3334 47.8889 21.3 48.4667 21.2334C49.0445 21.1667 49.6445 21.0889 50.2667 21C48.4 17.8889 45.8667 15.3889 42.6667 13.5C39.4667 11.6112 35.9111 10.6667 32 10.6667C31.3778 10.6667 30.7778 10.7 30.2 10.7667C29.6223 10.8334 29.0223 10.9112 28.4 11ZM11.8 25.2667C14.0667 23.9778 16.0445 22.3111 17.7334 20.2667C19.4223 18.2223 20.6889 15.9334 21.5334 13.4C19.2667 14.6889 17.2889 16.3556 15.6 18.4C13.9112 20.4445 12.6445 22.7334 11.8 25.2667Z" fill="#3D0E1E"/>
</g>
</svg>
