<svg width="600" height="600" viewBox="0 0 600 600" fill="none" xmlns="http://www.w3.org/2000/svg">
<g clip-path="url(#clip0_196_376)">
<path d="M0 0H584C592.837 0 600 7.16344 600 16V584C600 592.837 592.837 600 584 600H0V0Z" fill="#D1274B"/>
<path d="M0 0H150V150C67.1573 150 0 82.8427 0 0Z" fill="#FFF4E4"/>
<path d="M0 225C0 183.579 33.5786 150 75 150H150V225C150 266.421 116.421 300 75 300C33.5786 300 0 266.421 0 225Z" fill="#FFF4E4"/>
<path d="M150 375C150 333.579 183.579 300 225 300H300V375C300 416.421 266.421 450 225 450C183.579 450 150 416.421 150 375Z" fill="#FFF4E4"/>
<path d="M0 450H75C116.421 450 150 483.579 150 525C150 566.421 116.421 600 75 600C33.5786 600 0 566.421 0 525V450Z" fill="#FFF4E4"/>
<path d="M150 75C150 33.5786 183.579 0 225 0C266.421 0 300 33.5786 300 75V150H225C183.579 150 150 116.421 150 75Z" fill="#3D0E1E"/>
<path d="M300 75C300 33.5786 333.579 0 375 0C416.421 0 450 33.5786 450 75V150H375C333.579 150 300 116.421 300 75Z" fill="#FFF4E4"/>
<path d="M300 225C300 183.579 333.579 150 375 150C416.421 150 450 183.579 450 225V300H375C333.579 300 300 266.421 300 225Z" fill="#FFF4E4"/>
<path d="M150 150C232.843 150 300 217.157 300 300H150V150Z" fill="#F88020"/>
<path d="M450 75C450 33.5786 483.579 0 525 0V150C483.579 150 450 116.421 450 75Z" fill="#F88020"/>
<path d="M525 75C525 33.5786 558.579 0 600 0V150C558.579 150 525 116.421 525 75Z" fill="#F88020"/>
<path d="M525 225C525 183.579 558.579 150 600 150V300C558.579 300 525 266.421 525 225Z" fill="#3D0E1E"/>
<path d="M75 375C33.5786 375 0 341.421 0 300H150C150 341.421 116.421 375 75 375Z" fill="#F88020"/>
<circle cx="450" cy="450" r="150" fill="#3D0E1E"/>
<rect x="150" y="450" width="150" height="150" fill="#F88020"/>
</g>
<defs>
<clipPath id="clip0_196_376">
<path d="M0 0H584C592.837 0 600 7.16344 600 16V584C600 592.837 592.837 600 584 600H0V0Z" fill="white"/>
</clipPath>
</defs>
</svg>
