<svg width="48" height="48" viewBox="0 0 48 48" fill="none" xmlns="http://www.w3.org/2000/svg">
<mask id="mask0_329_266" style="mask-type:alpha" maskUnits="userSpaceOnUse" x="0" y="0" width="48" height="48">
<rect width="48" height="48" fill="#D9D9D9"/>
</mask>
<g mask="url(#mask0_329_266)">
<path d="M24 44C23.1333 44 22.35 43.7917 21.65 43.375C20.95 42.9583 20.4 42.4 20 41.7C18.9 41.7 17.9583 41.3083 17.175 40.525C16.3917 39.7417 16 38.8 16 37.7V30.6C14.0333 29.3 12.4583 27.5833 11.275 25.45C10.0917 23.3167 9.5 21 9.5 18.5C9.5 14.4667 10.9083 11.0417 13.725 8.225C16.5417 5.40833 19.9667 4 24 4C28.0333 4 31.4583 5.40833 34.275 8.225C37.0917 11.0417 38.5 14.4667 38.5 18.5C38.5 21.0667 37.9083 23.4 36.725 25.5C35.5417 27.6 33.9667 29.3 32 30.6V37.7C32 38.8 31.6083 39.7417 30.825 40.525C30.0417 41.3083 29.1 41.7 28 41.7C27.6 42.4 27.05 42.9583 26.35 43.375C25.65 43.7917 24.8667 44 24 44ZM20 37.7H28V35.9H20V37.7ZM20 33.9H28V32H20V33.9ZM19.6 28H22.5V22.6L18.1 18.2L20.2 16.1L24 19.9L27.8 16.1L29.9 18.2L25.5 22.6V28H28.4C30.2 27.1333 31.6667 25.8583 32.8 24.175C33.9333 22.4917 34.5 20.6 34.5 18.5C34.5 15.5667 33.4833 13.0833 31.45 11.05C29.4167 9.01667 26.9333 8 24 8C21.0667 8 18.5833 9.01667 16.55 11.05C14.5167 13.0833 13.5 15.5667 13.5 18.5C13.5 20.6 14.0667 22.4917 15.2 24.175C16.3333 25.8583 17.8 27.1333 19.6 28Z" fill="#3D0E1E"/>
</g>
</svg>
